<svg xmlns="http://www.w3.org/2000/svg" width="1940.989" height="871.059" viewBox="0 0 1940.989 871.059"><g transform="translate(6228.194 -5446.163) rotate(90)"><path d="M5446.163,5109.06l1.96.8-1.96,1.655Z" transform="translate(0 210.709)" fill="#f1f2f2"/><path d="M5931.782,5833.251h0Z" transform="translate(-114.621 394.943)" fill="#f1f2f2"/><path d="M6373.88,5311.535c-5.99-6.226-7.851-14.929-9.979-23.24-.424-1.653,2.5-4.335,5.016-8.374,3.026,11.966,5.343,21.124,7.66,30.283Z" transform="translate(-222.887 265.762)" fill="#f1f2f2"/><path d="M5802.117,4660.5c-10.037-3.141-14.607-12.765-21.172-20.024l2.029-2.356,18.942,22.619Z" transform="translate(-79.225 92.697)" fill="#f1f2f2"/><path d="M5669.793,5473.214q-4.562-13.369-9.125-26.737l-.206.181a41.335,41.335,0,0,1,9.11,26.751Z" transform="translate(-44.45 308.199)" fill="#f1f2f2"/><path d="M6374.089,5261.129l-9.979-3.084C6367.934,5250.368,6370,5250.685,6374.089,5261.129Z" transform="translate(-222.939 249.731)" fill="#f1f2f2"/><path d="M6564.557,5619.828c-8.525-1.27-8.525-1.27-7.71-12.021C6560.144,5612.946,6562.35,5616.387,6564.557,5619.828Z" transform="translate(-262.846 441.705)" fill="#f1f2f2"/><path d="M6490.149,5251.888l9.991,4.845C6493.575,5260.931,6493.575,5260.931,6490.149,5251.888Z" transform="translate(-249.082 249.203)" fill="#f1f2f2"/><path d="M6575.352,5501.271l7.97,9.456-2.681,2.895-8.441-8.969Q6573.776,5502.964,6575.352,5501.271Z" transform="translate(-266.101 315.859)" fill="#f1f2f2"/><path d="M6569.376,5456.547l8.537,7.029C6570.315,5466.082,6570.315,5466.082,6569.376,5456.547Z" transform="translate(-265.515 302.467)" fill="#f1f2f2"/><path d="M5624.961,5348.82l-7.419-14.019,2.8-1.668q3.457,7.164,6.916,14.325Z" transform="translate(-35.548 273.465)" fill="#f1f2f2"/><path d="M6369.161,4959.378q-1.925,3.962-3.846,7.926c-4.971-5.176-3.157-7.724.7-9.551Z" transform="translate(-222.561 173.732)" fill="#f1f2f2"/><path d="M6555.833,5265.458l7.727-.948.4,4.047-7.732.882Q6556.028,5267.448,6555.833,5265.458Z" transform="translate(-262.706 251.483)" fill="#f1f2f2"/><path d="M6204.34,5666.009l-8.573,4.69q-.826-1.743-1.651-3.487l8.5-4.854Z" transform="translate(-176.731 430.39)" fill="#f1f2f2"/><path d="M5727.273,4677.979l11.4-8.233,1.377,2.818-12.987,5.445Z" transform="translate(-66.399 98.924)" fill="#f1f2f2"/><path d="M5469.164,4980.567c-2.42,1.991-3.8,3.994-4.97,3.856-1.309-.154-2.428-2.249-3.63-3.5.964-.987,1.906-2.742,2.9-2.778C5464.895,4978.094,5466.364,4979.289,5469.164,4980.567Z" transform="translate(-2.987 178.152)" fill="#f1f2f2"/><path d="M5654.054,4464.8c-1.5.722-2.99,1.963-4.493,1.978-.953.008-1.92-1.809-2.882-2.807,1.564-1.179,3.008-2.839,4.736-3.366,1.156-.352,2.721.907,4.1,1.445Z" transform="translate(-41.591 -35.954)" fill="#f1f2f2"/><path d="M6086.824,5458.057l4.225-4.051,5.68,5.207q-.208.63-.415,1.259l-9.093-2.844Z" transform="translate(-151.373 300.929)" fill="#f1f2f2"/><path d="M6530.167,5056.137c2.28-.244,4.559-.545,6.842-.6a7.211,7.211,0,0,1,.426,2.878,64.442,64.442,0,0,1-6.292,2.623Q6530.655,5058.59,6530.167,5056.137Z" transform="translate(-257.382 197.878)" fill="#f1f2f2"/><path d="M5712.663,5151.528c1.247,2.166,2.789,3.96,2.486,4.488a8.758,8.758,0,0,1-3.794,3.29c-.337.161-2.436-2.266-2.227-2.949C5709.6,5154.829,5711.011,5153.65,5712.663,5151.528Z" transform="translate(-62.097 223.353)" fill="#f1f2f2"/><path d="M6358.575,5170.383q.96-3.847,1.92-7.694l3.433.709q-.532,3.968-1.066,7.937Q6360.719,5170.859,6358.575,5170.383Z" transform="translate(-221.79 226.525)" fill="#f1f2f2"/><path d="M5535.193,4796.063l-5.853,3.581-1.7-3.887,6.159-3.157Z" transform="translate(-16.901 130.458)" fill="#f1f2f2"/><path d="M6022.271,5717.234h-7.2l-.113-3.059,7.186-.416Q6022.206,5715.5,6022.271,5717.234Z" transform="translate(-134.345 419.728)" fill="#f1f2f2"/><path d="M5503.272,5237.317c1.482,1.756,2.933,2.7,3.052,3.821.132,1.222-.967,2.6-1.528,3.915-1.321-1.035-2.956-1.838-3.8-3.221C5500.668,5241.305,5502.149,5239.448,5503.272,5237.317Z" transform="translate(-11.363 245.504)" fill="#f1f2f2"/><path d="M5985.119,5176.138c2.2-1.892,3.407-3.2,4.848-3.976.38-.205,2.249,1.525,2.141,1.849a9.965,9.965,0,0,1-2.447,4.4C5989.187,5178.81,5987.4,5177.33,5985.119,5176.138Z" transform="translate(-127.292 228.188)" fill="#f1f2f2"/><path d="M5731.9,5439.5c1.483-1.9,2.577-4.066,3.185-3.913,1.443.362,2.656,1.825,3.963,2.843-.97,1.1-1.8,2.764-2.953,3.113C5735.166,5441.826,5733.834,5440.515,5731.9,5439.5Z" transform="translate(-67.489 295.974)" fill="#f1f2f2"/><path d="M6535.722,5148.919c1.186,2.223,2.336,3.646,2.576,5.234.083.543-2.5,2.416-3.2,2.07a6.925,6.925,0,0,1-2.915-3.877C6532.021,5151.853,6534.033,5150.5,6535.722,5148.919Z" transform="translate(-257.798 222.534)" fill="#f1f2f2"/><path d="M5801.162,5550.979l5.323-8.281,2.216,1.233q-1.835,4.832-3.667,9.664Z" transform="translate(-83.851 455.21)" fill="#f1f2f2"/><path d="M6364.471,4469.614c1.262,2.11,2.522,3.472,2.809,5.045.122.67-2.336,2.759-2.688,2.524a8.238,8.238,0,0,1-3.128-3.834C6361.254,4472.757,6363.044,4471.32,6364.471,4469.614Z" transform="translate(-222.386 -37.835)" fill="#f1f2f2"/><path d="M5563.191,4514.247c.974,2.439,2.2,4.479,1.865,4.863a8.819,8.819,0,0,1-4.239,2.536c-.361.1-2.049-2.645-1.742-3.3C5559.737,4516.928,5561.3,4516.017,5563.191,4514.247Z" transform="translate(-23.413 -47.093)" fill="#f1f2f2"/><path d="M5786.618,5534.305l-3.274,7.824-2.249-.932q.987-4.134,1.977-8.267Z" transform="translate(-79.09 457.236)" fill="#f1f2f2"/><path d="M5923.5,4740.985l-3.247,6.842C5917.1,4743.2,5917.1,4743.2,5923.5,4740.985Z" transform="translate(-111.459 117.099)" fill="#f1f2f2"/><path d="M6336.313,4775.557q1.657-3.368,3.316-6.735l2.019,1.057-2.316,7.325Z" transform="translate(-210.191 124.566)" fill="#f1f2f2"/><path d="M6487.9,4802.252l7.587-8.9C6498.076,4801.587,6494.811,4802.3,6487.9,4802.252Z" transform="translate(-248.616 131.012)" fill="#f1f2f2"/><path d="M6247.292,4918.038l6.631,4.883-1.463,2.792-7.153-3.946Z" transform="translate(-188.786 162.989)" fill="#f1f2f2"/><path d="M5906.363,4493.163l-7.523,1.133q-.209-1.952-.415-3.9l7.559-.726Q5906.174,4491.415,5906.363,4493.163Z" transform="translate(-106.83 -41.995)" fill="#f1f2f2"/><path d="M5907.745,4801.734c2.265-1.07,3.41-2,4.558-2,.675,0,2.062,1.806,1.9,2.225-.5,1.29-1.466,2.961-2.5,3.207C5910.919,4805.346,5909.751,4803.563,5907.745,4801.734Z" transform="translate(-109.01 131.985)" fill="#f1f2f2"/><path d="M6045.929,5588.313c1.686-1.16,3.431-2.777,3.738-2.5,1.134,1.034,1.793,2.694,2.631,4.119-1.084.744-2.28,2.208-3.225,2.034C6048.079,5591.786,6047.323,5590.038,6045.929,5588.313Z" transform="translate(-141.643 446.273)" fill="#f1f2f2"/><path d="M6090.338,5445.431q1.966-3.3,3.929-6.6l2.321,1.766-4.337,6.271Z" transform="translate(-152.128 297.708)" fill="#f1f2f2"/><path d="M6534.474,5322.691c1.561-1.875,2.632-3.886,3.224-3.729,1.4.371,2.564,1.774,3.825,2.761-.947.993-1.772,2.516-2.875,2.816C6537.712,5324.795,6536.456,5323.637,6534.474,5322.691Z" transform="translate(-258.276 265.765)" fill="#f1f2f2"/><path d="M5791.44,5526.242l7.8,1.284q-.272,1.772-.544,3.542l-7.734-1.694Q5791.2,5527.808,5791.44,5526.242Z" transform="translate(-81.449 458.623)" fill="#f1f2f2"/><path d="M6402.088,5441.57q1.23-3.46,2.457-6.922l2.168.929q-1.195,3.48-2.39,6.961Z" transform="translate(-230.816 296.561)" fill="#f1f2f2"/><path d="M6162.46,4890.88c-1.937,1.119-3.236,2.489-4.156,2.232-1-.279-1.648-2.072-2.45-3.205,1.053-.878,2.1-2.43,3.158-2.432C6159.937,4887.475,6160.864,4889.21,6162.46,4890.88Z" transform="translate(-167.608 154.633)" fill="#f1f2f2"/><path d="M5551.687,5711.819c1.53-1.8,2.578-3.759,3.182-3.607,1.424.36,2.638,1.725,3.937,2.683-.969.972-1.826,2.465-2.942,2.754C5554.912,5713.895,5553.663,5712.752,5551.687,5711.819Z" transform="translate(-21.888 420.88)" fill="#f1f2f2"/><path d="M5685.6,5724.257q-2.136-2.387-4.273-4.771a23.179,23.179,0,0,1,5.168-.456c.449.049.719,2.027,1.071,3.12Z" transform="translate(-55.537 418.644)" fill="#f1f2f2"/><path d="M5696.6,5085.241c.3,1.637,1.1,3.4.778,4.875a7.543,7.543,0,0,1-2.782,4.174c-.487.346-3.234-1.567-3.147-2.095.272-1.655,1.4-3.14,2.2-4.69Z" transform="translate(-57.923 206.622)" fill="#f1f2f2"/><path d="M5748.091,5271.511c1.475,1.8,3.266,3.31,3.048,3.85-.58,1.441-2.023,2.466-3.122,3.657-.82-1.144-2.176-2.226-2.293-3.449C5745.626,5274.533,5746.961,5273.331,5748.091,5271.511Z" transform="translate(-70.735 254.253)" fill="#f1f2f2"/><path d="M6246.276,4606.126c2.7-1,4.153-1.942,5.548-1.852.6.039,1.791,2.657,1.447,3.35a4.131,4.131,0,0,1-3.3,1.9C6249.078,4609.5,6248.213,4608,6246.276,4606.126Z" transform="translate(-188.974 81.628)" fill="#f1f2f2"/><path d="M6317.786,5570.439c.622,2.571,1.5,4.215,1.079,4.927a4.312,4.312,0,0,1-3.329,1.922c-.792-.033-1.524-1.775-2.283-2.754Z" transform="translate(-204.757 449.456)" fill="#f1f2f2"/><path d="M5500.033,4664.123c.818,2.757,1.711,4.2,1.438,5.283-.276,1.1-1.7,1.865-2.625,2.775-.62-1.239-1.738-2.493-1.709-3.715C5497.162,4667.392,5498.468,4666.352,5500.033,4664.123Z" transform="translate(-10.573 97.44)" fill="#f1f2f2"/><path d="M5757.262,5000.5c-.979-1.9-1.957-3.792-4.142-8.03l6.2,5.58Z" transform="translate(-72.49 182.316)" fill="#f1f2f2"/><path d="M5834.958,5700.026a48.988,48.988,0,0,1,5.351,1.583,19.153,19.153,0,0,1-.525,3.035l-5.375-1.389Z" transform="translate(-91.684 422.577)" fill="#f1f2f2"/><path d="M5913.552,4674.45l3.955-3c.7,1.156,1.692,2.236,1.971,3.5.12.547-1.349,2.2-1.89,2.094C5916.463,4676.828,5915.477,4675.768,5913.552,4674.45Z" transform="translate(-110.373 98.974)" fill="#f1f2f2"/><path d="M6478.963,5180.1c.474,2.522,1.29,4.229.819,5.038-.566.974-2.224,1.187-3.41,1.729-.456-1.259-1.494-2.718-1.207-3.723C6475.458,5182.116,6477.052,5181.538,6478.963,5180.1Z" transform="translate(-245.964 230.387)" fill="#f1f2f2"/><path d="M5609.738,5233.655c.681,1.55,1.708,2.992,1.428,3.432-.638,1-1.918,1.508-2.937,2.214-.289-1.073-.934-2.225-.755-3.2C5607.623,5235.289,5608.731,5234.685,5609.738,5233.655Z" transform="translate(-33.453 243.802)" fill="#f1f2f2"/><path d="M5691.9,5619.707l3.188,4.347a33.84,33.84,0,0,1-4.09,3.231c-.219.131-1.972-1.67-1.83-2.187C5689.606,5623.511,5690.618,5622.112,5691.9,5619.707Z" transform="translate(-57.384 439.237)" fill="#f1f2f2"/><path d="M5807.406,4666.595l9.645,6.554.22-.249c-5.25,1.418-7.706-2.123-9.665-6.544Z" transform="translate(-85.353 97.844)" fill="#f1f2f2"/><path d="M5950.251,4995.833q.929,2.09,1.857,4.182c-.911.291-2.525.995-2.617.806a22.682,22.682,0,0,1-1.215-3.96Z" transform="translate(-118.54 182.371)" fill="#f1f2f2"/><path d="M5951.833,4908.993c.854,2.7,1.57,3.921,1.489,5.071-.058.815-1.19,1.54-1.843,2.3-.857-.943-2.31-1.821-2.4-2.847C5948.987,4912.528,5950.3,4911.383,5951.833,4908.993Z" transform="translate(-118.735 160.581)" fill="#f1f2f2"/><path d="M6465.945,4684.853c.394,2.143.984,3.559.752,4.787-.138.726-1.579,1.155-2.436,1.717-.455-1.313-1.21-2.618-1.235-3.939C6463.016,4686.8,6464.411,4686.144,6465.945,4684.853Z" transform="translate(-243.455 102.563)" fill="#f1f2f2"/><path d="M6129.763,5578.046c1.234,2.276,2.6,3.693,2.369,4.657-.263,1.111-1.849,2.062-3.041,2.556-.339.141-1.96-1.671-1.853-2.379C6127.44,5581.55,6128.473,5580.373,6129.763,5578.046Z" transform="translate(-160.812 447.878)" fill="#f1f2f2"/><path d="M6411.1,5653.133c1.254,1.811,2.494,2.9,2.318,3.493-.369,1.239-1.479,2.212-2.285,3.294-.7-.787-2-1.618-1.957-2.351C6409.248,5656.318,6410.169,5655.128,6411.1,5653.133Z" transform="translate(-232.285 432.303)" fill="#f1f2f2"/><path d="M5671.956,5480.406l4.467,12.291.225-.207q-2.235-6.14-4.471-12.279Z" transform="translate(-53.312 310.442)" fill="#f1f2f2"/><path d="M5504.358,4689.708c1.064-1.357,1.912-2.438,2.759-3.52.88,1.016,2.524,2.111,2.443,3.026-.1,1.115-1.557,2.23-2.64,2.977C5506.7,4692.345,5505.543,4690.881,5504.358,4689.708Z" transform="translate(-12.071 102.833)" fill="#f1f2f2"/><path d="M5647.111,5159.772c.877,1.162,2.189,2.288,2.014,2.793-.417,1.2-1.538,2.107-2.375,3.132-.575-.921-1.625-1.863-1.593-2.758C5645.19,5161.988,5646.25,5161.08,5647.111,5159.772Z" transform="translate(-41.276 224.863)" fill="#f1f2f2"/><path d="M5843.2,4553.158c2.137-1.151,3.257-2.162,4.416-2.22.647-.033,2.077,1.832,1.907,2.3-.467,1.285-1.458,2.928-2.5,3.183C5846.253,4556.6,5845.084,4554.849,5843.2,4553.158Z" transform="translate(-93.765 -54.704)" fill="#f1f2f2"/><path d="M6293.515,4387.435c1.376,1.649,2.9,2.667,2.892,3.68,0,1.114-1.286,2.927-2.236,3.124-.827.17-2.633-1.366-2.789-2.373C6291.216,4390.787,6292.474,4389.444,6293.515,4387.435Z" transform="translate(-199.57 -20.79)" fill="#f1f2f2"/><path d="M6289.3,4621.791l2.391-2.411,2.234,3.2c-.842.633-1.7,1.772-2.519,1.74C6290.745,4624.294,6290.131,4622.853,6289.3,4621.791Z" transform="translate(-199.071 85.478)" fill="#f1f2f2"/><path d="M5910.659,4928.763c1.5-.83,2.581-1.794,3.726-1.9.53-.049,1.839,2.113,1.67,2.365a8.687,8.687,0,0,1-2.985,2.683C5912.867,4932.024,5911.847,4930.344,5910.659,4928.763Z" transform="translate(-109.683 164.63)" fill="#f1f2f2"/><path d="M5888.118,4857.376c1.447,1.367,2.879,2.278,2.768,2.7a14.33,14.33,0,0,1-1.972,3.493c-.757-.594-2.132-1.176-2.141-1.783C5886.756,4860.55,5887.476,4859.3,5888.118,4857.376Z" transform="translate(-104.024 146.993)" fill="#f1f2f2"/><path d="M6219.568,5524.662l6.2-1.023.285,1.677-6.221,1.7Q6219.7,5525.84,6219.568,5524.662Z" transform="translate(-182.652 317.434)" fill="#f1f2f2"/><path d="M5453.556,5635.686c1.316-1.664,2.152-3.257,2.558-3.134a13.539,13.539,0,0,1,3.374,2.179c-.575.821-1.118,2.288-1.732,2.325C5456.614,5637.123,5455.43,5636.358,5453.556,5635.686Z" transform="translate(-1.533 436.574)" fill="#f1f2f2"/><path d="M6176.941,4578.543c-1.356,1.261-2.183,2.371-3.245,2.826-.357.153-1.985-1.576-1.854-2.059a12.1,12.1,0,0,1,2.066-3.263Z" transform="translate(-171.348 -59.912)" fill="#f1f2f2"/><path d="M6368.834,5616.968c1.987-1.483,2.858-2.629,3.576-2.522a2.967,2.967,0,0,1,1.618,2.363,2.779,2.779,0,0,1-1.916,1.987C6371.239,5618.834,6370.329,5617.862,6368.834,5616.968Z" transform="translate(-223.918 440.329)" fill="#f1f2f2"/><path d="M5675.255,5121.611c1.378,1.339,2.748,2.135,2.674,2.708-.165,1.29-1.045,2.471-1.634,3.7-.758-.6-2.1-1.162-2.146-1.819C5674.07,5124.919,5674.725,5123.589,5675.255,5121.611Z" transform="translate(-53.822 215.181)" fill="#f1f2f2"/><path d="M5466.757,5603.025c1.839-1.642,2.618-2.883,3.354-2.853.866.036,1.7,1.173,2.54,1.833-.874.954-1.62,2.341-2.665,2.712C5469.272,5604.969,5468.139,5603.8,5466.757,5603.025Z" transform="translate(-4.272 443.289)" fill="#f1f2f2"/><path d="M5636.213,5625.218l2.346,2.112c-.7.9-1.268,2.063-2.151,2.559-.354.2-2.034-1.146-1.987-1.665C5634.508,5627.279,5635.433,5626.427,5636.213,5625.218Z" transform="translate(-39.049 438.094)" fill="#f1f2f2"/><path d="M5795.978,5724.48c-1.031.615-1.984,1.64-2.6,1.438-.822-.27-1.382-1.5-2.055-2.312l3.047-2.472Z" transform="translate(-81.495 418.199)" fill="#f1f2f2"/><path d="M5759.8,4978.7c1.317,1.911,2.423,2.89,2.65,4.072.14.729-1.23,2.608-1.625,2.512a13.217,13.217,0,0,1-3.479-2.024Z" transform="translate(-73.476 178.374)" fill="#f1f2f2"/><path d="M5753.295,5145.08c2.094-.807,3.109-1.565,4.029-1.443.818.108,1.53,1.19,2.289,1.842-.592.814-1.074,2.089-1.811,2.3C5757.171,5147.963,5756.248,5146.928,5753.295,5145.08Z" transform="translate(-72.533 220.131)" fill="#f1f2f2"/><path d="M6046.6,4910.291c-.842-1.1-1.892-1.86-1.883-2.61.01-.926.9-1.842,1.406-2.763a13.573,13.573,0,0,1,2.538,2.663C6048.809,4907.843,6047.532,4909.092,6046.6,4910.291Z" transform="translate(-141.309 159.056)" fill="#f1f2f2"/><path d="M5462.612,5547.447c1.111-.72,2.3-1.812,2.552-1.595a14.473,14.473,0,0,1,2.192,3.031c-.888.4-1.851,1.231-2.64,1.066C5464.007,5549.8,5463.489,5548.557,5462.612,5547.447Z" transform="translate(-3.412 454.561)" fill="#f1f2f2"/><path d="M5993.571,5550.216a12.821,12.821,0,0,1,1.681,2.19c.094.188-.926,1.4-1.084,1.324a12.4,12.4,0,0,1-2.1-1.632Z" transform="translate(-128.867 453.651)" fill="#f1f2f2"/><path d="M5778.114,5497.783h-6.574q.214-1,.427-2l5.793,2.375Z" transform="translate(-76.844 309.822)" fill="#f1f2f2"/><path d="M6498.039,5706.925l2.3,2.855c-.747.712-1.467,1.932-2.247,1.98-.643.04-1.851-1.272-1.9-2.054S6497.229,5708.065,6498.039,5706.925Z" transform="translate(-250.335 421.146)" fill="#f1f2f2"/><path d="M5484.04,5432.385c.606-.542,1.189-1.378,1.485-1.27a13.523,13.523,0,0,1,2.557,1.578q-.764,1.066-1.526,2.134Z" transform="translate(-7.856 293.827)" fill="#f1f2f2"/><path d="M5739.514,4970.432c.727.617,1.67,1.228,1.608,1.4a17.185,17.185,0,0,1-1.435,2.635l-1.973-1.629Z" transform="translate(-68.826 175.577)" fill="#f1f2f2"/><path d="M5528.026,4309.213q.094.963.184,1.921a7.661,7.661,0,0,1-1.619-.215,1.346,1.346,0,0,1-.131-.974A8.7,8.7,0,0,1,5528.026,4309.213Z" transform="translate(-16.646 -4.565)" fill="#f1f2f2"/><path d="M6094.6,4554.28c1.5-.971,2.457-1.913,3.532-2.125.438-.086,1.766,1.793,1.6,2.111a6.448,6.448,0,0,1-2.489,2.593C6096.959,4557.019,6095.966,4555.65,6094.6,4554.28Z" transform="translate(-153.111 -54.956)" fill="#f1f2f2"/><path d="M6164.427,5299.82c-.307.636-.485,1.521-.965,1.815-.356.219-1.105-.328-1.679-.535.307-.631.483-1.519.962-1.813C6163.1,5299.068,6163.852,5299.612,6164.427,5299.82Z" transform="translate(-168.918 259.466)" fill="#f1f2f2"/><path d="M6402.528,4632.962a13.72,13.72,0,0,1,2.275-2.764c.274-.186,1.657.7,1.655,1.093a10.659,10.659,0,0,1-.823,2.929Z" transform="translate(-230.907 88.139)" fill="#f1f2f2"/><path d="M5945.657,5521.159l1.222,1.444-2.361,1.59c-.25-.7-.795-1.492-.654-2.084C5943.968,5521.673,5944.968,5521.494,5945.657,5521.159Z" transform="translate(-117.48 316.636)" fill="#f1f2f2"/><path d="M5557.044,5296.066l1.7-3.055,2.743,2.271c-.586.838-1.067,2.183-1.792,2.367C5559.025,5297.82,5558.094,5296.744,5557.044,5296.066Z" transform="translate(-22.999 258.713)" fill="#f1f2f2"/><path d="M5836.77,5111.412q-.516.812-1.032,1.614a13.267,13.267,0,0,1-1.21-1.568c-.065-.111.419-.844.539-.811A10.806,10.806,0,0,1,5836.77,5111.412Z" transform="translate(-91.665 211.093)" fill="#f1f2f2"/><path d="M5834.84,4863.179c.468-1.072.771-2.315,1.051-2.308a8.4,8.4,0,0,1,2.521.838c-.229.644-.4,1.8-.7,1.835A10.715,10.715,0,0,1,5834.84,4863.179Z" transform="translate(-91.756 147.131)" fill="#f1f2f2"/><path d="M5930.821,5176.161c-.795-1.126-1.762-1.889-1.752-2.637.013-.922.838-1.83,1.312-2.745a11.4,11.4,0,0,1,2.456,2.6C5933.006,5173.705,5931.758,5174.907,5930.821,5176.161Z" transform="translate(-114.004 227.517)" fill="#f1f2f2"/><path d="M6336.034,4729.477a8.2,8.2,0,0,1,1.126,2.694c.019.361-1.329.806-2.054,1.212a14.56,14.56,0,0,1-.907-2.806C6334.169,4730.354,6335.209,4729.956,6336.034,4729.477Z" transform="translate(-209.625 113.635)" fill="#f1f2f2"/><path d="M5582.594,5203.477l-2.018-1.422a16.455,16.455,0,0,1,1.5-2.364c.082-.094,1.463.717,1.437,1.027A11.44,11.44,0,0,1,5582.594,5203.477Z" transform="translate(-27.88 234.408)" fill="#f1f2f2"/><path d="M5927.131,4649.481l-2.234-4.984a17.356,17.356,0,0,1,3,1.7C5928.1,4646.363,5927.6,4647.561,5927.131,4649.481Z" transform="translate(-113.009 91.947)" fill="#f1f2f2"/><path d="M5898.779,4958.675c.434-.9.775-2.039,1.012-2.014a8.593,8.593,0,0,1,2.339.927c-.234.6-.467,1.695-.7,1.7A10.947,10.947,0,0,1,5898.779,4958.675Z" transform="translate(-106.848 171.68)" fill="#f1f2f2"/><path d="M6220.272,4796.209l4.576-3.159,1.056,1.9-4.645,3.042Z" transform="translate(-182.798 130.169)" fill="#f1f2f2"/><path d="M6284.742,5594.681l2.1,2.462-2.682,2.565c-.549-.785-1.6-1.647-1.517-2.336C6282.75,5596.518,6283.8,5595.807,6284.742,5594.681Z" transform="translate(-197.487 444.427)" fill="#f1f2f2"/><path d="M5911.181,5413.793q-.53-.726-1.056-1.451l2.258-1.771c.16.672.609,1.486.4,1.976C5912.554,5413.113,5911.744,5413.391,5911.181,5413.793Z" transform="translate(-109.517 288.339)" fill="#f1f2f2"/><path d="M5600.479,5327.5l-4.237-2.57,1.408-1.757,2.629,4.536Z" transform="translate(-31.129 266.424)" fill="#f1f2f2"/><path d="M5912.4,4637.722a6.915,6.915,0,0,1,.651.672,7.354,7.354,0,0,1-1.127,1.359c-.059.053-.489-.386-.748-.6Q5911.79,4638.439,5912.4,4637.722Z" transform="translate(-109.753 89.811)" fill="#f1f2f2"/><path d="M5601.227,5419.461c.572.312,1.5.512,1.616.963.152.6-.332,1.389-.542,2.1-.557-.428-1.3-.741-1.6-1.327C5600.518,5420.833,5601.024,5420.054,5601.227,5419.461Z" transform="translate(-32.046 290.551)" fill="#f1f2f2"/><path d="M6237.144,5512.9c.31-.632.5-1.572.967-1.792.416-.2,1.145.412,1.735.666-.338.6-.561,1.473-1.05,1.73C6238.419,5513.7,6237.706,5513.13,6237.144,5512.9Z" transform="translate(-186.708 313.787)" fill="#f1f2f2"/><path d="M6231.889,5669.928c.249.6.495,1.191.741,1.786l-2.041.836c-.178-.642-.674-1.54-.457-1.865C6230.447,5670.215,6231.277,5670.16,6231.889,5669.928Z" transform="translate(-185.037 428.82)" fill="#f1f2f2"/><path d="M6219.711,4806.485l1.721.708-.761,1.932a5.161,5.161,0,0,1-1.615-1.081C6218.91,4807.839,6219.469,4807.023,6219.711,4806.485Z" transform="translate(-182.425 133.171)" fill="#f1f2f2"/><path d="M5899.114,4661.743c.278.636.555,1.267.83,1.9l-2.129.968c-.122-.642-.507-1.434-.293-1.885C5897.754,4662.236,5898.544,4662.065,5899.114,4661.743Z" transform="translate(-106.524 96.084)" fill="#f1f2f2"/><path d="M6321.648,4770.145c-.5.478-1.122,1.411-1.415,1.3a7.522,7.522,0,0,1-1.925-1.6c.542-.361,1.1-1.035,1.622-1C6320.48,4768.9,6320.988,4769.613,6321.648,4770.145Z" transform="translate(-205.884 123.513)" fill="#f1f2f2"/><path d="M5931.84,5617.989c.76.559,1.727,1.119,1.68,1.259a5.569,5.569,0,0,1-1.333,2.334c-.227.2-1.155-.553-1.764-.871Z" transform="translate(-114.314 439.593)" fill="#f1f2f2"/><path d="M5875.426,5656.312a8.675,8.675,0,0,1,1.494,2.221c.121.382-.646,1.1-1.009,1.667l-2.2-2.108Z" transform="translate(-100.927 431.644)" fill="#f1f2f2"/><path d="M5851.139,5682.259q.395,1.017.784,2.03l-2.24.905c-.163-.73-.641-1.648-.4-2.137S5850.49,5682.506,5851.139,5682.259Z" transform="translate(-95.139 426.262)" fill="#f1f2f2"/><path d="M5724.131,4619.958l1.8,1.843c-.567.391-1.25,1.216-1.675,1.079-.772-.248-1.392-1.068-2.075-1.65Z" transform="translate(-65.162 85.373)" fill="#f1f2f2"/><path d="M5685.278,5373.375l.859.326a15.451,15.451,0,0,1-.78,1.526c-.039.06-.47-.179-.719-.279Q5684.958,5374.162,5685.278,5373.375Z" transform="translate(-56.282 278.231)" fill="#f1f2f2"/><path d="M5935,5381.982a21.675,21.675,0,0,1,2.2-2.063c.109-.08.755.716,1.151,1.106a22.957,22.957,0,0,1-1.936,2.209C5936.346,5383.3,5935.629,5382.542,5935,5381.982Z" transform="translate(-115.399 280.513)" fill="#f1f2f2"/><path d="M6206.717,4757.192c-.541-.365-1.339-.613-1.537-1.134-.173-.456.331-1.22.537-1.848.526.3,1.411.5,1.5.91A5.176,5.176,0,0,1,6206.717,4757.192Z" transform="translate(-179.14 119.826)" fill="#f1f2f2"/><path d="M5574.006,5311.8c.469-.364,1.236-1.127,1.357-1.019a10.629,10.629,0,0,1,1.439,1.929c-.589.25-1.25.8-1.746.662C5574.612,5313.245,5574.348,5312.354,5574.006,5311.8Z" transform="translate(-26.517 262.49)" fill="#f1f2f2"/><path d="M6348.58,4817.72c.339.456.674.912,1.009,1.368-.262.178-.511.461-.789.5-.255.037-.542-.19-.814-.3Q6348.28,4818.5,6348.58,4817.72Z" transform="translate(-212.84 135.898)" fill="#f1f2f2"/><path d="M5938.492,5237.875q.773-.128,1.549-.252c-.016.308.055.826-.064.885a6.8,6.8,0,0,1-1.393.391C5938.554,5238.558,5938.522,5238.218,5938.492,5237.875Z" transform="translate(-116.194 243.246)" fill="#f1f2f2"/><path d="M5456.767,4827.924q-.437,1.006-.876,2.01a9.969,9.969,0,0,1-1.391-2.45c-.094-.363.759-1.022,1.181-1.546Z" transform="translate(-1.728 138.437)" fill="#f1f2f2"/><path d="M5732.606,4359.29c.257.667.775,1.386.674,1.979-.064.375-1.113.855-1.6.731a1.915,1.915,0,0,1-.678-1.649C5731.249,4359.833,5732.043,4359.627,5732.606,4359.29Z" transform="translate(-67.223 -14.952)" fill="#f1f2f2"/><path d="M6191.551,5715.737q-.919-.4-1.834-.8c.289-.583.5-1.576.882-1.657.6-.127,1.3.361,1.956.588Q6192.054,5714.8,6191.551,5715.737Z" transform="translate(-175.516 419.832)" fill="#f1f2f2"/><path d="M5733.154,4938.418c.254-1.026.418-1.693.582-2.36.74.429,1.68.688,2.143,1.351.265.379-.243,1.409-.4,2.146Z" transform="translate(-67.744 166.612)" fill="#f1f2f2"/><path d="M6091.807,5742c.409-.473.818-.941,1.228-1.411l1.529,2.047c-.524.322-1.132,1-1.548.876C6092.525,5743.367,6092.2,5742.534,6091.807,5742Z" transform="translate(-152.403 414.164)" fill="#f1f2f2"/><path d="M5793.835,5541.115l-2.019-3.681,1.771-.974q.788,1.974,1.575,3.948Z" transform="translate(-81.598 456.504)" fill="#f1f2f2"/><path d="M6451.761,4718.064q.384.967.763,1.932c-.6.219-1.25.694-1.779.566-.341-.083-.5-1.05-.746-1.622Z" transform="translate(-240.754 110.475)" fill="#f1f2f2"/><path d="M5960.245,5629.758l1.25,1.46-1.878,1.68c-.331-.656-.909-1.316-.9-1.966C5958.725,5630.547,5959.661,5630.181,5960.245,5629.758Z" transform="translate(-120.988 437.152)" fill="#f1f2f2"/><path d="M5460.789,5096.2q.3,2.142.594,4.285l-1.058-.157q.384-2.2.769-4.4Z" transform="translate(-2.938 207.987)" fill="#f1f2f2"/><path d="M5500.716,5129.764q.471.9.938,1.791l-2.22.831c-.156-.6-.608-1.446-.4-1.751C5499.362,5130.154,5500.131,5130.035,5500.716,5129.764Z" transform="translate(-10.955 216.071)" fill="#f1f2f2"/><path d="M5982.756,4819.49q.623-.636,1.246-1.268l1.306,2.194c-.565.3-1.227.942-1.667.793C5983.225,4821.07,5983.042,4820.1,5982.756,4819.49Z" transform="translate(-126.658 136.255)" fill="#f1f2f2"/><path d="M5780.205,5630.595c.487-.944.842-2.126,1.138-2.109a7.631,7.631,0,0,1,2.381.954c-.253.676-.522,1.933-.758,1.925A10.982,10.982,0,0,1,5780.205,5630.595Z" transform="translate(-78.858 437.416)" fill="#f1f2f2"/><path d="M5770.059,4557.264l.972,1.978c-.645.269-1.322.8-1.92.7-.314-.05-.772-1.276-.632-1.8C5768.593,4557.717,5769.5,4557.545,5770.059,4557.264Z" transform="translate(-76.074 -56.016)" fill="#f1f2f2"/><path d="M5750.205,4783c.5.6.963,1.146,1.424,1.7l-2.185,1.367c-.263-.649-.767-1.329-.7-1.937C5748.784,4783.723,5749.632,4783.417,5750.205,4783Z" transform="translate(-71.423 127.229)" fill="#f1f2f2"/><path d="M6032.6,5750.168a10.271,10.271,0,0,1-1.719-1.24,5.651,5.651,0,0,1,1.33-2.315c.226-.2,1.148.561,1.752.883Z" transform="translate(-138.028 412.92)" fill="#f1f2f2"/><path d="M5657.1,5437.874q1.332,3.472,2.664,6.945l.206-.181q-1.289-3.514-2.581-7.026Z" transform="translate(-43.753 297.027)" fill="#f1f2f2"/><path d="M5763.886,5035.558q.891.386,1.773.774c-.323.6-.54,1.37-1.016,1.715-.239.175-1.33-.374-1.362-.681A4.625,4.625,0,0,1,5763.886,5035.558Z" transform="translate(-74.85 191.884)" fill="#f1f2f2"/><path d="M6013.356,5545.214q.628.866,1.253,1.73a11.849,11.849,0,0,1-2.507.843c-.146.02-.435-1.254-.658-1.931Q6012.4,5545.534,6013.356,5545.214Z" transform="translate(-133.441 454.688)" fill="#f1f2f2"/><path d="M6086.309,5457.495l-3.878-1.909,2.152-2.223,1.33,4.561Z" transform="translate(-150.212 299.916)" fill="#f1f2f2"/><path d="M5903.191,5569.081l-1.146,1.706c-.331-.574-.9-1.143-.916-1.724-.009-.477.651-.968,1.015-1.452C5902.491,5568.1,5902.836,5568.583,5903.191,5569.081Z" transform="translate(-107.384 450.042)" fill="#f1f2f2"/><path d="M5756.4,5522.836l1.736-2.541c.139.35.417.992.395,1.005-.793.456-1.615.853-2.433,1.257Z" transform="translate(-73.155 316.183)" fill="#f1f2f2"/><path d="M5764.845,5421.762c.253.3.505.6.756.895a14.484,14.484,0,0,1-1.867.934c-.092.034-.391-.627-.594-.966Q5763.991,5422.191,5764.845,5421.762Z" transform="translate(-74.819 290.612)" fill="#f1f2f2"/><path d="M5478.729,5345.454l.286.905-1.251.178c.047-.33.006-.74.172-.962C5478.062,5345.409,5478.455,5345.486,5478.729,5345.454Z" transform="translate(-6.555 270.767)" fill="#f1f2f2"/><path d="M5450.044,5083.224c.251.023.652-.047.723.088a3.941,3.941,0,0,1,.223,1.088l-1.239-.114Z" transform="translate(-0.744 203.7)" fill="#f1f2f2"/><path d="M5766.388,5521.9a11.444,11.444,0,0,1-.542-1.952c-.026-.22.447-.509.692-.766a12.458,12.458,0,0,1,.573,1.985C5767.139,5521.365,5766.646,5521.649,5766.388,5521.9Z" transform="translate(-75.446 315.98)" fill="#f1f2f2"/><path d="M5752.771,4975.942l1.107,1.41a12.122,12.122,0,0,1-1.887.736c-.128.03-.608-.824-.545-.905A10.364,10.364,0,0,1,5752.771,4975.942Z" transform="translate(-72.057 176.5)" fill="#f1f2f2"/><path d="M5518.5,4660.136l-.565.912a2.879,2.879,0,0,1-.346-1.048c.028-.32.342-.611.531-.915Q5518.311,4659.611,5518.5,4660.136Z" transform="translate(-14.815 95.274)" fill="#f1f2f2"/><path d="M5526.19,4932.5c.234.108.648.19.666.33a3.158,3.158,0,0,1-.2,1c-.262-.1-.749-.2-.747-.287A4.2,4.2,0,0,1,5526.19,4932.5Z" transform="translate(-16.542 165.168)" fill="#f1f2f2"/><path d="M5531.779,5283.912c.4.492,1.081.97,1.059,1.408-.025.533-.645,1.033-1.007,1.546-.273-.262-.809-.58-.774-.776A14.547,14.547,0,0,1,5531.779,5283.912Z" transform="translate(-17.608 255.727)" fill="#f1f2f2"/><path d="M5546.464,4809.5a8.914,8.914,0,0,1,.608,1.622c.029.154-.458.6-.7.594s-.7-.5-.66-.639A9.371,9.371,0,0,1,5546.464,4809.5Z" transform="translate(-20.648 133.861)" fill="#f1f2f2"/><path d="M5776.954,5054.369l.757.413-1.02,1.02c-.139-.274-.424-.586-.376-.816S5776.727,5054.571,5776.954,5054.369Z" transform="translate(-77.916 196.391)" fill="#f1f2f2"/><path d="M6364.674,4898.8l.375-.927.243,1Z" transform="translate(-223.055 156.226)" fill="#f1f2f2"/><path d="M5777.412,5078.149c.27,0,.657-.116.763.024a3.377,3.377,0,0,1,.346,1.031l-1.46-.048Z" transform="translate(-78.094 202.367)" fill="#f1f2f2"/><path d="M5549.281,5133.229l.483.87-1.058.679a2.916,2.916,0,0,1-.042-1C5548.739,5133.543,5549.066,5133.407,5549.281,5133.229Z" transform="translate(-21.253 216.616)" fill="#f1f2f2"/><path d="M6356.671,4890.529a8.9,8.9,0,0,1,1.665-.583c.179-.028.425.457.641.707a8.943,8.943,0,0,1-1.664.583C6357.134,4891.265,6356.887,4890.78,6356.671,4890.529Z" transform="translate(-214.91 154.267)" fill="#f1f2f2"/><path d="M6356.231,4859.8c-.44.335-.868.9-1.323.922-.327.019-.689-.673-1.035-1.047.239-.209.523-.632.711-.587A9.441,9.441,0,0,1,6356.231,4859.8Z" transform="translate(-214.252 146.444)" fill="#f1f2f2"/><path d="M5573.475,5088.289c.217.191.434.384.652.575-.273.109-.56.333-.812.293s-.447-.352-.668-.544Z" transform="translate(-26.235 204.904)" fill="#f1f2f2"/><path d="M6342.252,4828.2c.449.461,1.19.871,1.231,1.351a5.553,5.553,0,0,1-.681,2.045c-.445-.422-1.218-.812-1.257-1.274A5.854,5.854,0,0,1,6342.252,4828.2Z" transform="translate(-211.329 138.895)" fill="#f1f2f2"/><path d="M5786.21,5268.527c-.215.275-.5.817-.631.775a11.049,11.049,0,0,1-1.7-.827c.239-.246.528-.737.708-.692A8.441,8.441,0,0,1,5786.21,5268.527Z" transform="translate(-79.712 251.057)" fill="#f1f2f2"/><path d="M6315.6,4884.608c-.205.284-.462.836-.61.8a7.921,7.921,0,0,1-1.556-.675,8.867,8.867,0,0,1,1.5-.872C6315.074,4883.817,6315.38,4884.346,6315.6,4884.608Z" transform="translate(-204.703 152.768)" fill="#f1f2f2"/><ellipse cx="2.463" cy="0.846" rx="2.463" ry="0.846" transform="translate(5555.439 5239.093)" fill="#f1f2f2"/><path d="M6294.705,4736.522c.153.305.495.8.427.882a4.445,4.445,0,0,1-1.005.72,3,3,0,0,1-.071-1.048C6294.127,4736.839,6294.479,4736.7,6294.705,4736.522Z" transform="translate(-200.091 115.052)" fill="#f1f2f2"/><path d="M5590.759,5436.091l.724-.829a12.271,12.271,0,0,1,.713,1.968c.041.211-.434.544-.672.822Q5591.14,5437.072,5590.759,5436.091Z" transform="translate(-29.992 294.488)" fill="#f1f2f2"/><path d="M5594.471,5280.718a11.985,11.985,0,0,1,.6,1.943c.03.2-.451.488-.7.735a12.076,12.076,0,0,1-.59-1.936C5593.749,5281.259,5594.225,5280.969,5594.471,5280.718Z" transform="translate(-30.618 254.804)" fill="#f1f2f2"/><path d="M5792.255,5089.656l-.4.958-.316-1.006Z" transform="translate(-81.503 205.282)" fill="#f1f2f2"/><path d="M6281.457,4720.135l.9-.4q.149.685.3,1.37a2.99,2.99,0,0,1-.959-.24C6281.54,4720.764,6281.531,4720.386,6281.457,4720.135Z" transform="translate(-197.128 110.714)" fill="#f1f2f2"/><path d="M6278.329,5713.976q-.465,1.039-.932,2.076c-.247-.3-.739-.668-.692-.9a10.873,10.873,0,0,1,.758-1.948Z" transform="translate(-196.017 419.844)" fill="#f1f2f2"/><path d="M5799.688,5490.463l.823.379-1.1,1.059c-.164-.267-.515-.623-.452-.78C5799.069,5490.838,5799.431,5490.676,5799.688,5490.463Z" transform="translate(-83.261 308.031)" fill="#f1f2f2"/><path d="M6269.845,4741.51l-.37.841-.886-1.088.742-.592Z" transform="translate(-194.093 116.128)" fill="#f1f2f2"/><path d="M5806.193,5336.518c.262-.114.539-.339.779-.3.222.036.4.358.6.554C5807.115,5336.689,5806.653,5336.6,5806.193,5336.518Z" transform="translate(-84.969 268.195)" fill="#f1f2f2"/><path d="M5807.883,5243.22l.813.42-1.093,1.1c-.149-.29-.455-.621-.4-.86C5807.256,5243.614,5807.641,5243.436,5807.883,5243.22Z" transform="translate(-85.206 244.766)" fill="#f1f2f2"/><path d="M6260.529,5583.452c.424.541,1.134,1.063,1.084,1.472-.071.573-.708,1.062-1.1,1.586-.254-.292-.751-.629-.714-.868A12.893,12.893,0,0,1,6260.529,5583.452Z" transform="translate(-192.032 446.757)" fill="#f1f2f2"/><path d="M6255.858,4767.134l.979-.292-.129.832Z" transform="translate(-191.081 122.676)" fill="#f1f2f2"/><path d="M6242.937,5134.217l.659.754c-.3.159-.618.473-.893.434-.258-.037-.472-.449-.7-.7Z" transform="translate(-187.826 216.754)" fill="#f1f2f2"/><path d="M5599.166,4779.349a8.589,8.589,0,0,1,1.577-.548c.112-.019.462.583.426.856s-.522.746-.627.693A9.047,9.047,0,0,1,5599.166,4779.349Z" transform="translate(-31.736 125.869)" fill="#f1f2f2"/><path d="M6235.314,5152.888l-.515-.3.74-.548Z" transform="translate(-186.106 221.202)" fill="#f1f2f2"/><path d="M6233.911,5451.291c0-.294-.1-.728.021-.832a3.068,3.068,0,0,1,.979-.38q-.022.808-.043,1.616Z" transform="translate(-185.894 297.771)" fill="#f1f2f2"/><path d="M6226.7,5091.9q.184.506.368,1.01l-1.345.235c.027-.367-.05-.813.116-1.075C6225.953,5091.89,6226.4,5091.952,6226.7,5091.9Z" transform="translate(-183.978 205.943)" fill="#f1f2f2"/><path d="M6221.732,5751.317c.022-.267-.039-.689.083-.767a3.2,3.2,0,0,1,.988-.274l-.11,1.354Z" transform="translate(-183.03 412.154)" fill="#f1f2f2"/><path d="M6213.727,5252.239l.65.8a13.286,13.286,0,0,1-1.677.841c-.083.03-.35-.553-.533-.853Q6212.946,5252.633,6213.727,5252.239Z" transform="translate(-180.8 247.122)" fill="#f1f2f2"/><path d="M5831.705,5071.643c-.222-.1-.614-.181-.632-.315a2.983,2.983,0,0,1,.183-.952l.756.27Z" transform="translate(-90.833 200.439)" fill="#f1f2f2"/><path d="M5729.756,5347.324c-.281-.257-.834-.587-.8-.761a11.607,11.607,0,0,1,.75-1.919,11.468,11.468,0,0,1,.811,1.884C5730.565,5346.7,5730.027,5347.054,5729.756,5347.324Z" transform="translate(-66.742 271.199)" fill="#f1f2f2"/><path d="M5836.233,5141.526l-.8.146.117-.561Z" transform="translate(-91.863 218.315)" fill="#f1f2f2"/><path d="M5727.811,4777.925c-.415.263-.828.522-1.242.783a10.859,10.859,0,0,1-.242-1.94c.011-.254.462-.487.712-.73Q5727.425,4776.981,5727.811,4777.925Z" transform="translate(-66.12 125.368)" fill="#f1f2f2"/><path d="M6196.592,5026.234l.935.416a13.566,13.566,0,0,1-1.306.906,7.121,7.121,0,0,1-.492-.79Z" transform="translate(-176.911 189.157)" fill="#f1f2f2"/><path d="M6193.623,5035.7l-1.391.594a8.616,8.616,0,0,1-.1-1.75c.032-.251.475-.439.731-.656C6193.113,5034.487,6193.369,5035.09,6193.623,5035.7Z" transform="translate(-176.049 191.422)" fill="#f1f2f2"/><path d="M6195.3,5184.69l-.751.238.081-.634Z" transform="translate(-176.607 229.38)" fill="#f1f2f2"/><path d="M6181.009,5567.84c-.254-.265-.759-.606-.715-.777a11.978,11.978,0,0,1,.794-1.869c.262.254.783.593.741.744A12.939,12.939,0,0,1,6181.009,5567.84Z" transform="translate(-173.261 450.543)" fill="#f1f2f2"/><path d="M5726.554,4680.051l-1.947-.46,2.157.43Z" transform="translate(-65.721 100.305)" fill="#f1f2f2"/><path d="M6179.412,5022.7l-1.446.8a10.843,10.843,0,0,1-.252-2.045c.015-.278.509-.526.784-.789Q6178.954,5021.68,6179.412,5022.7Z" transform="translate(-172.656 188.152)" fill="#f1f2f2"/><path d="M5849.214,4532.09l-1.285.821a10.106,10.106,0,0,1-.368-1.831c-.006-.2.5-.411.767-.616C5848.624,4531.005,5848.919,4531.546,5849.214,4532.09Z" transform="translate(-94.735 -50.457)" fill="#f1f2f2"/><path d="M6180.048,5320.646c.064.244.244.629.169.7a2.559,2.559,0,0,1-.787.4l-.268-1.29Z" transform="translate(-172.984 264.452)" fill="#f1f2f2"/><path d="M5859.9,5485.194a11.137,11.137,0,0,1-.609-1.727c-.023-.111.543-.532.812-.5s.756.56.717.654A11.355,11.355,0,0,1,5859.9,5485.194Z" transform="translate(-97.503 306.471)" fill="#f1f2f2"/><path d="M6180.5,5496.976c-.1.22-.187.62-.3.626a2.677,2.677,0,0,1-.86-.227c.094-.231.188-.658.286-.659A2.845,2.845,0,0,1,6180.5,5496.976Z" transform="translate(-173.028 309.38)" fill="#f1f2f2"/><path d="M5862.846,4844.186c.267-.248.585-.744.789-.693a9.161,9.161,0,0,1,1.726.8c-.24.277-.553.832-.711.784A11.2,11.2,0,0,1,5862.846,4844.186Z" transform="translate(-98.354 142.439)" fill="#f1f2f2"/><path d="M5871.994,5391.724l.9.307a4.9,4.9,0,0,1-1.007.916c-.121.062-.473-.417-.718-.648Z" transform="translate(-100.308 282.666)" fill="#f1f2f2"/><path d="M5871.534,5246.4l-.988.5a10.837,10.837,0,0,1-.647-1.859c-.03-.161.537-.451.83-.682Q5871.132,5245.375,5871.534,5246.4Z" transform="translate(-100.007 245.427)" fill="#f1f2f2"/><path d="M5614.155,4930.275l.813-.315q.1.653.209,1.306c-.3-.045-.658,0-.873-.167C5614.152,4930.978,5614.2,4930.56,5614.155,4930.275Z" transform="translate(-34.845 164.512)" fill="#f1f2f2"/><path d="M5873.784,5095.993c.2.1.563.2.567.314a3.493,3.493,0,0,1-.214.933c-.2-.1-.569-.2-.572-.313A3.518,3.518,0,0,1,5873.784,5095.993Z" transform="translate(-100.861 206.989)" fill="#f1f2f2"/><path d="M5617.414,4961.9c.021-.253-.036-.658.08-.729a2.679,2.679,0,0,1,.905-.212l-.105,1.235Z" transform="translate(-35.521 172.427)" fill="#f1f2f2"/><path d="M5885.567,5329.624l-.689.709c-.146-.327-.445-.684-.4-.975.05-.317.42-.573.65-.856Z" transform="translate(-103.439 266.725)" fill="#f1f2f2"/><path d="M5888.152,5432.815c.036-.247,0-.633.124-.712a2.343,2.343,0,0,1,.861-.175q-.089.6-.179,1.2Z" transform="translate(-104.306 292.945)" fill="#f1f2f2"/><path d="M6160.008,5013.666l-1.363.418a12.7,12.7,0,0,1,.037-1.841c.028-.188.444-.308.683-.459Q6159.687,5012.724,6160.008,5013.666Z" transform="translate(-168.145 185.727)" fill="#f1f2f2"/><path d="M5620.844,5422.225c.238.247.476.49.712.733a10.177,10.177,0,0,1-1.72.723c-.151.037-.417-.495-.632-.766C5619.751,5422.685,5620.3,5422.454,5620.844,5422.225Z" transform="translate(-35.893 290.571)" fill="#f1f2f2"/><path d="M6156.341,5375.288c.245.473.487.945.729,1.416a7.6,7.6,0,0,1-1.659.371c-.186,0-.38-.536-.571-.828Q6155.591,5375.766,6156.341,5375.288Z" transform="translate(-167.27 278.69)" fill="#f1f2f2"/><path d="M6151.47,4977.25l1-.226-.153.765Z" transform="translate(-166.447 176.416)" fill="#f1f2f2"/><path d="M5703.571,5081.779l.221.781-1.127-.516Z" transform="translate(-60.533 203.211)" fill="#f1f2f2"/><path d="M6147.277,4799.862c.375.424,1.114.968,1.038,1.25-.147.554-.749.963-1.162,1.432-.243-.277-.734-.629-.687-.816A11.334,11.334,0,0,1,6147.277,4799.862Z" transform="translate(-165.284 131.481)" fill="#f1f2f2"/><path d="M6144.229,4664.959a8.98,8.98,0,0,1,1.565-.583c.1-.02.449.6.414.876s-.524.767-.62.716A9.164,9.164,0,0,1,6144.229,4664.959Z" transform="translate(-164.76 96.578)" fill="#f1f2f2"/><path d="M6122.584,4970.767l-.643-.333.907-.585Z" transform="translate(-159.477 174.621)" fill="#f1f2f2"/><path d="M5902.315,5276.115l-.334.806-.177-.884Z" transform="translate(-107.521 252.931)" fill="#f1f2f2"/><path d="M6119.549,4933.147a10,10,0,0,1,.687,1.81c.034.169-.512.67-.783.662s-.79-.558-.745-.707A10.671,10.671,0,0,1,6119.549,4933.147Z" transform="translate(-158.726 165.613)" fill="#f1f2f2"/><path d="M6119.643,5333.306l.935-.3-.087.762Z" transform="translate(-158.934 267.455)" fill="#f1f2f2"/><path d="M5699.2,4531.4c-.308.5-.629,1.41-.92,1.4-.575-.024-1.133-.557-1.7-.88.346-.459.66-1.249,1.044-1.293C5698.125,4530.573,5698.677,4531.116,5699.2,4531.4Z" transform="translate(-59.111 -50.49)" fill="#f1f2f2"/><path d="M6114.552,4903.363l.017-.771.863.408Z" transform="translate(-157.732 157.382)" fill="#f1f2f2"/><path d="M5915.964,5066.5c.4.4,1.185.932,1.117,1.17a5.027,5.027,0,0,1-1.132,1.514c-.23-.292-.688-.628-.649-.867A9.323,9.323,0,0,1,5915.964,5066.5Z" transform="translate(-110.723 199.867)" fill="#f1f2f2"/><path d="M6108.137,4800.027c-.22-.112-.618-.217-.623-.338a3.666,3.666,0,0,1,.232-1.007c.22.112.619.216.623.337A3.665,3.665,0,0,1,6108.137,4800.027Z" transform="translate(-156.071 130.919)" fill="#f1f2f2"/><path d="M6107.062,4537.091q.229.81.454,1.616a9.887,9.887,0,0,1-1.781-.027c-.187-.033-.307-.526-.458-.809Q6106.168,4537.48,6107.062,4537.091Z" transform="translate(-155.572 -51.832)" fill="#f1f2f2"/><path d="M5922.094,5094.22a9.262,9.262,0,0,1,.575,1.786c.024.169-.541.626-.81.6s-.748-.6-.7-.744A9.893,9.893,0,0,1,5922.094,5094.22Z" transform="translate(-112.103 206.885)" fill="#f1f2f2"/><path d="M5688.933,4902.8c-.221.3-.465.823-.611.791a8,8,0,0,1-1.529-.64,8.286,8.286,0,0,1,1.472-.816C5688.411,4902.089,5688.706,4902.569,5688.933,4902.8Z" transform="translate(-56.795 157.426)" fill="#f1f2f2"/><path d="M5627.548,5369.929c.061.259.234.7.165.747a3.024,3.024,0,0,1-.862.336l-.243-1.221Z" transform="translate(-37.428 277.051)" fill="#f1f2f2"/><path d="M5928.776,4587.315l.637.54c-.247.132-.5.385-.738.361s-.437-.328-.655-.508Z" transform="translate(-113.721 -62.249)" fill="#f1f2f2"/><path d="M6096.652,5401.664q-.146-.433-.291-.866l1.3-.158c-.061.319-.036.729-.211.927C6097.31,5401.731,6096.929,5401.641,6096.652,5401.664Z" transform="translate(-153.448 284.864)" fill="#f1f2f2"/><path d="M6090.178,4785.956q.557-.529,1.115-1.054a9.242,9.242,0,0,1,.589,1.693c.032.2-.41.492-.635.742Q6090.712,4786.647,6090.178,4785.956Z" transform="translate(-151.997 127.597)" fill="#f1f2f2"/><path d="M5929.578,5040.3l.722-.283-.48,1.359Z" transform="translate(-114.078 192.697)" fill="#f1f2f2"/><path d="M6091.538,4920.234l-.534.85a2.644,2.644,0,0,1-.315-.982c.03-.308.326-.583.5-.872Q6091.366,4919.732,6091.538,4920.234Z" transform="translate(-152.099 161.897)" fill="#f1f2f2"/><path d="M5934.065,5011.48c.016-.264-.056-.673.065-.761a2.847,2.847,0,0,1,.932-.289q-.04.681-.079,1.361Z" transform="translate(-115.14 185.123)" fill="#f1f2f2"/><path d="M5680.24,5502.346l3.241,3.808.036-.306-3.01-3.75Z" transform="translate(-55.257 312.216)" fill="#f1f2f2"/><path d="M5677.386,4926.639l3.018,2.621-1.763,1.188-1-4.011Z" transform="translate(-54.582 164.266)" fill="#f1f2f2"/><path d="M6090.864,4936.008q.182-.476.364-.953.456.655.912,1.312c-.255.17-.585.539-.746.464C6091.155,4936.722,6091.035,4936.3,6090.864,4936.008Z" transform="translate(-152.15 165.933)" fill="#f1f2f2"/><path d="M5679.957,5500.771l-2.14-5.068-.225.207q1.05,2.555,2.1,5.109Z" transform="translate(-54.625 311.153)" fill="#f1f2f2"/><path d="M5630.481,5381.89a5.783,5.783,0,0,1-.819-1.976c-.006-.338.835-.691,1.294-1.038.256.594.748,1.214.693,1.771C5631.606,5381.1,5630.9,5381.47,5630.481,5381.89Z" transform="translate(-38.062 280.117)" fill="#f1f2f2"/><path d="M5677.272,4925.738l-1.646-1.978,1.31-.691q.042,1.436.085,2.872Z" transform="translate(-54.156 163.125)" fill="#f1f2f2"/><path d="M5947.4,4678.946a3.21,3.21,0,0,1,.22.842c0,.078-.388.16-.6.24a2.772,2.772,0,0,1-.161-.824C5946.873,4679.1,5947.213,4679.031,5947.4,4678.946Z" transform="translate(-118.156 100.232)" fill="#f1f2f2"/><path d="M5950.4,5595.093l1.5,1.183c-.5.377-1,1.027-1.51,1.044-.435.014-.89-.7-1.337-1.1Q5949.729,5595.658,5950.4,5595.093Z" transform="translate(-118.708 444.342)" fill="#f1f2f2"/><path d="M5643.635,4908.5l.013.91-.939-.432Z" transform="translate(-40.768 158.925)" fill="#f1f2f2"/><path d="M6078.972,5800.15c.624-.265,1.273-.774,1.861-.7.4.051.706.925,1.054,1.431a5.222,5.222,0,0,1-1.962.773C6079.592,5801.642,6079.287,5800.685,6078.972,5800.15Z" transform="translate(-149.377 401.956)" fill="#f1f2f2"/><path d="M6074.986,5441.512l.813-.285q.114.565.229,1.132a2.649,2.649,0,0,1-.846-.208C6075.05,5442.067,6075.047,5441.733,6074.986,5441.512Z" transform="translate(-148.399 295.292)" fill="#f1f2f2"/><path d="M5647.773,4300.025c.371.521.936,1.006,1.025,1.581.048.3-.711.8-1.164,1.108-.075.05-.691-.517-.651-.672A15.561,15.561,0,0,1,5647.773,4300.025Z" transform="translate(-41.654 -2.659)" fill="#f1f2f2"/><path d="M6045.688,5093.143c.223.113.623.208.634.342a3.522,3.522,0,0,1-.2,1.018c-.246-.1-.7-.212-.7-.313A4.042,4.042,0,0,1,6045.688,5093.143Z" transform="translate(-141.418 206.294)" fill="#f1f2f2"/><path d="M6031.348,5274.4c.538-.349,1.084-.979,1.612-.962s1.022.69,1.532,1.075c-.545.347-1.1.972-1.635.961C6032.348,5275.46,6031.851,5274.781,6031.348,5274.4Z" transform="translate(-138.139 252.696)" fill="#f1f2f2"/><path d="M6023.89,5392.291c.027-.231-.01-.605.1-.664a2.5,2.5,0,0,1,.842-.152q-.069.547-.138,1.093Z" transform="translate(-136.338 282.546)" fill="#f1f2f2"/><path d="M6017.251,5432.558a4.952,4.952,0,0,1-1.262.292c-.1-.006-.176-.447-.263-.688Z" transform="translate(-134.422 292.782)" fill="#f1f2f2"/><path d="M5981.324,5009.455c.05,1.18.1,2.359.037.863-.238,1.369-.027.152.185-1.065Z" transform="translate(-126.266 184.933)" fill="#f1f2f2"/><path d="M5981.563,5009.191l1.495-.234-1.716.437Z" transform="translate(-126.31 184.493)" fill="#f1f2f2"/><path d="M5460.984,5095.757c-.848-.274-1.7-.548-.817-.265-.778-.812-.133-.138.512.536Z" transform="translate(-2.828 206.663)" fill="#f1f2f2"/><path d="M5989.1,4842.64c.24.015.61-.067.691.063a3.962,3.962,0,0,1,.3,1.047l-1.334-.076Z" transform="translate(-128.055 142.12)" fill="#f1f2f2"/><path d="M5992.162,4654.192q.16.861.316,1.717a8.468,8.468,0,0,1-1.681-.116c-.177-.044-.256-.555-.381-.853Q5991.287,4654.565,5992.162,4654.192Z" transform="translate(-128.458 93.987)" fill="#f1f2f2"/><path d="M5657.335,5437.281c-.4-1.005-.791-2.01-.189-.483.212-1.592.056-.424-.1.744Z" transform="translate(-43.698 294.132)" fill="#f1f2f2"/><path d="M5992.343,4915.416c.155.288.485.784.438.832a5.827,5.827,0,0,1-1.015.711,2.633,2.633,0,0,1-.133-1.034C5991.7,4915.695,5992.095,4915.582,5992.343,4915.416Z" transform="translate(-128.724 160.846)" fill="#f1f2f2"/><path d="M5994.5,5527.719a5.345,5.345,0,0,1-.767-1.946c.013-.359.85-.684,1.315-1.024.256.606.751,1.24.691,1.806C5995.7,5526.985,5994.951,5527.327,5994.5,5527.719Z" transform="translate(-129.241 458.933)" fill="#f1f2f2"/><path d="M6012.752,4812.477c-.1.291-.205.583-.308.874l-.884-1.108.712-.668Z" transform="translate(-133.433 134.304)" fill="#f1f2f2"/><path d="M5996.646,4790.763l.669.736a9.86,9.86,0,0,1-1.688.658c-.159.033-.412-.477-.622-.738Q5995.825,4791.09,5996.646,4790.763Z" transform="translate(-129.545 128.902)" fill="#f1f2f2"/><path d="M5655.163,4906.144l.632.591c-.251.144-.515.421-.751.4s-.434-.357-.65-.555Z" transform="translate(-43.191 158.342)" fill="#f1f2f2"/><path d="M6013.269,5797.228l.85-.371.278,1.278a2.849,2.849,0,0,1-.9-.229C6013.349,5797.814,6013.339,5797.463,6013.269,5797.228Z" transform="translate(-133.835 402.492)" fill="#f1f2f2"/><path d="M6009.3,4998.217l.282.775-.655-.047Z" transform="translate(-132.801 181.839)" fill="#f1f2f2"/><path d="M5994.749,5165.781l.584.312q-.313.538-.629,1.075-.325-.349-.653-.7Z" transform="translate(-129.302 224.896)" fill="#f1f2f2"/><path d="M5969.8,4849.461c.192.27.552.558.529.8s-.43.446-.669.666c-.192-.27-.553-.559-.529-.8S5969.557,4849.68,5969.8,4849.461Z" transform="translate(-123.418 143.943)" fill="#f1f2f2"/><path d="M5969.235,4946.98l.041-.759,1.327.464c-.238.239-.446.566-.726.682C5969.728,4947.428,5969.453,4947.121,5969.235,4946.98Z" transform="translate(-123.447 168.636)" fill="#f1f2f2"/><path d="M5963.467,5010.11l.439-1.654c.034.243.174.585.079.707a3.691,3.691,0,0,1-.817.621Z" transform="translate(-122.007 184.698)" fill="#f1f2f2"/><path d="M6023.726,5141.158l.188.729-.611-.131Z" transform="translate(-136.193 218.381)" fill="#f1f2f2"/><path d="M5651.41,5057.738l-.657.294.052-.7Z" transform="translate(-42.436 196.936)" fill="#f1f2f2"/><path d="M5962.817,5010.132l-1.343.781c.2-.171.374-.442.591-.489a4.155,4.155,0,0,1,1.05.034Z" transform="translate(-121.62 184.888)" fill="#f1f2f2"/><path d="M6037.914,4986.419l-.6.266.063-.662Z" transform="translate(-139.499 178.691)" fill="#f1f2f2"/><path d="M5671.37,5286.832l-.772.35.042-.792Z" transform="translate(-46.552 255.545)" fill="#f1f2f2"/><path d="M5644.781,5305.476l.692-.23-.094.675Z" transform="translate(-41.197 260.322)" fill="#f1f2f2"/><path d="M6071.009,5273.355l.669.415-.738,1.1c-.218-.265-.615-.54-.6-.792S6070.768,5273.594,6071.009,5273.355Z" transform="translate(-147.307 252.48)" fill="#f1f2f2"/><path d="M6074.048,5453.674l.725-.2-.134.7Z" transform="translate(-148.171 298.236)" fill="#f1f2f2"/><path d="M6074.89,4860.038l-.821.322.091-.844Z" transform="translate(-148.177 146.382)" fill="#f1f2f2"/><path d="M6077.21,5298.661l.583.749c-.23.21-.474.6-.685.581s-.394-.45-.589-.7Z" transform="translate(-148.765 258.889)" fill="#f1f2f2"/><path d="M6077.327,4936.94l.2.829-.662-.14Z" transform="translate(-148.833 166.181)" fill="#f1f2f2"/><path d="M5673.354,4649.769l-.263-.876.722.1Z" transform="translate(-47.07 92.514)" fill="#f1f2f2"/><path d="M6083.347,5447.763l-.768.359.06-.843Z" transform="translate(-150.184 296.715)" fill="#f1f2f2"/><path d="M6082.912,5434.835c.219.277.618.567.6.828s-.446.492-.694.736c-.219-.277-.62-.567-.6-.828S6082.663,5435.079,6082.912,5434.835Z" transform="translate(-150.109 293.845)" fill="#f1f2f2"/><path d="M5630.412,5460.2l.824-.336-.077.842Z" transform="translate(-38.217 299.933)" fill="#f1f2f2"/><path d="M5627.906,4922.03l-.2-.8.647.135Z" transform="translate(-37.657 162.156)" fill="#f1f2f2"/><path d="M5938.339,4890.637l.624-.237-.093.666Z" transform="translate(-116.144 154.24)" fill="#f1f2f2"/><path d="M5684.329,5507.135l.036-.306Z" transform="translate(-56.198 311.698)" fill="#f1f2f2"/><path d="M6094.3,4986.983l-.727.212.121-.7Z" transform="translate(-152.778 178.821)" fill="#f1f2f2"/><path d="M5927.18,5005.3l.614-.194-.088.591Z" transform="translate(-113.51 183.552)" fill="#f1f2f2"/><path d="M5690.654,4698.749l-.705.285.078-.739Z" transform="translate(-57.53 105.129)" fill="#f1f2f2"/><path d="M5693.12,5434.892l.274.844-.713-.087Z" transform="translate(-58.174 293.547)" fill="#f1f2f2"/><path d="M5907.878,5060.164q.37.453.738.906c-.28.265-.573.75-.836.731s-.5-.543-.743-.845Z" transform="translate(-108.771 197.934)" fill="#f1f2f2"/><path d="M5900.933,5420.026c.263-.209.551-.609.782-.573s.406.509.6.791c-.263.209-.551.607-.783.571S5901.132,5420.308,5900.933,5420.026Z" transform="translate(-107.328 289.822)" fill="#f1f2f2"/><path d="M5622.182,5311.033l.635.819c-.252.228-.52.653-.752.63s-.427-.492-.64-.766Z" transform="translate(-36.353 262.102)" fill="#f1f2f2"/><path d="M6130.235,4962.135l.673-.613c.179.252.514.524.49.752s-.4.415-.627.619Z" transform="translate(-161.439 172.606)" fill="#f1f2f2"/><path d="M6136.055,5400.537l.792.818c-.266.27-.537.754-.8.748s-.509-.506-.763-.79Z" transform="translate(-162.64 285.064)" fill="#f1f2f2"/><path d="M6136.958,5119.726l-.366.7-.923-.8.688-.679Z" transform="translate(-162.724 212.937)" fill="#f1f2f2"/><path d="M6139.771,5131.918l-.715.734c-.22-.265-.62-.536-.61-.791s.426-.492.665-.737Z" transform="translate(-163.38 216.07)" fill="#f1f2f2"/><path d="M5701.157,5246.517l.6-.2-.095.608Z" transform="translate(-60.173 245.229)" fill="#f1f2f2"/><path d="M5893.573,5038.619l.56.71c-.223.2-.459.562-.664.541s-.378-.426-.564-.664Z" transform="translate(-105.431 192.307)" fill="#f1f2f2"/><path d="M5459.195,4934.037l-.638.246.077-.659Z" transform="translate(-2.571 165.291)" fill="#f1f2f2"/><path d="M5704.425,4953.576l-.276-.779.658.056Z" transform="translate(-60.88 170.224)" fill="#f1f2f2"/><path d="M6158.675,4686.759l-.176-.688.591.137Z" transform="translate(-168.096 101.995)" fill="#f1f2f2"/><path d="M5863.226,5011.478l-.625.248.056-.622Z" transform="translate(-98.271 185.093)" fill="#f1f2f2"/><path d="M5853.606,4999.4l.59-.275-.049.654Z" transform="translate(-96.148 182.038)" fill="#f1f2f2"/><path d="M5847.923,5061.019l.726-.272-.079.724Z" transform="translate(-94.809 197.816)" fill="#f1f2f2"/><path d="M5613.731,5400.727l.686.4-.7,1.157c-.228-.263-.635-.527-.632-.785S5613.5,5400.983,5613.731,5400.727Z" transform="translate(-34.622 285.108)" fill="#f1f2f2"/><path d="M6198.475,5091.392c.2.255.576.519.566.763s-.4.469-.629.7c-.2-.256-.577-.52-.566-.764S6198.249,5091.625,6198.475,5091.392Z" transform="translate(-177.396 205.879)" fill="#f1f2f2"/><path d="M5610.658,4946.224l.657-.665c.2.245.557.5.547.732s-.393.445-.613.668Z" transform="translate(-34.12 168.528)" fill="#f1f2f2"/><path d="M6206.289,5041.713l.736.042q-.224.814-.447,1.628a3.105,3.105,0,0,1-.659-.88C6205.859,5042.308,6206.154,5041.98,6206.289,5041.713Z" transform="translate(-179.298 193.219)" fill="#f1f2f2"/><path d="M6210.023,5298.426l.641.836c-.261.226-.541.649-.777.622s-.434-.5-.648-.782Z" transform="translate(-180.09 258.878)" fill="#f1f2f2"/><path d="M6212.63,5214.73c.192.268.552.555.53.8s-.429.446-.667.667c-.192-.269-.553-.556-.53-.8S6212.392,5214.95,6212.63,5214.73Z" transform="translate(-180.728 237.453)" fill="#f1f2f2"/><path d="M5611.953,5302.2l-.4.794-1.05-.876.763-.773Z" transform="translate(-34.088 259.7)" fill="#f1f2f2"/><path d="M5608.394,4985.9l.582.74c-.231.2-.479.583-.691.562s-.394-.444-.588-.691Z" transform="translate(-33.506 178.829)" fill="#f1f2f2"/><path d="M5821.3,4679.4l.517.1-.2-.444Z" transform="translate(-88.523 100.167)" fill="#f1f2f2"/><path d="M5604.035,5332.09l.292-.318Z" transform="translate(-32.746 266.964)" fill="#f1f2f2"/><path d="M5821.256,4678.139l-1.461-3.526-.22.249,1.367,3.618Z" transform="translate(-88.13 99.533)" fill="#f1f2f2"/><path d="M6227.233,4760.723l-.684.294.071-.739Z" transform="translate(-184.157 120.98)" fill="#f1f2f2"/><path d="M5601.334,5328.845q1.072,1.3,2.142,2.592l.292-.315q-1.12-1.24-2.234-2.484Z" transform="translate(-32.186 267.142)" fill="#f1f2f2"/><path d="M6229.142,5110.657l.546-.229-.066.595Z" transform="translate(-184.766 210.481)" fill="#f1f2f2"/><path d="M5817.476,4998.021c.188.262.542.542.519.779s-.417.437-.65.653c-.187-.262-.54-.542-.518-.781S5817.245,4998.236,5817.476,4998.021Z" transform="translate(-87.476 181.965)" fill="#f1f2f2"/><path d="M6233.049,5144.408l-.735.355.05-.814Z" transform="translate(-185.519 219.122)" fill="#f1f2f2"/><path d="M5814.353,5181.053l.665.395q-.354.548-.707,1.095c-.218-.257-.611-.519-.6-.767S5814.122,5181.293,5814.353,5181.053Z" transform="translate(-86.741 228.841)" fill="#f1f2f2"/><path d="M5599.307,5317.1l.693.062-.458,1.461a2.922,2.922,0,0,1-.606-.821C5598.885,5317.631,5599.172,5317.335,5599.307,5317.1Z" transform="translate(-31.687 263.683)" fill="#f1f2f2"/><path d="M5730.36,4955.555l-.78.368.058-.857Z" transform="translate(-66.883 170.824)" fill="#f1f2f2"/><path d="M6257.672,5487.226c.249.3.7.612.689.9s-.481.562-.75.842c-.249-.3-.7-.611-.689-.9S6257.4,5487.5,6257.672,5487.226Z" transform="translate(-191.344 307.341)" fill="#f1f2f2"/><path d="M5808.542,5029.542l.654.636c-.214.214-.434.6-.641.595s-.4-.41-.6-.639Z" transform="translate(-85.382 189.978)" fill="#f1f2f2"/><path d="M5729.957,4928.028l-.61.154.115-.573Z" transform="translate(-66.826 163.732)" fill="#f1f2f2"/><path d="M5794.885,5061.233l-.164-.646.514.1Z" transform="translate(-82.252 197.752)" fill="#f1f2f2"/><path d="M6280.674,4743.214l-.35-.806.725.014Z" transform="translate(-196.848 116.422)" fill="#f1f2f2"/><path d="M5792.115,5106.685l.53.715c-.224.185-.467.535-.667.507s-.36-.43-.538-.669Z" transform="translate(-81.485 209.718)" fill="#f1f2f2"/><path d="M5591.273,4287.4l.64-.2-.1.613Z" transform="translate(-30.099)" fill="#f1f2f2"/><path d="M6307.789,4723.653l.688-.581c.175.253.507.528.481.751s-.415.393-.644.585Z" transform="translate(-203.342 111.564)" fill="#f1f2f2"/><path d="M5786.193,5258.739l.2.673-.565-.088Z" transform="translate(-80.154 248.429)" fill="#f1f2f2"/><path d="M5779.829,4386.35q.381-.357.763-.712c.208.286.6.591.573.854s-.458.48-.712.718Q5780.141,4386.778,5779.829,4386.35Z" transform="translate(-78.746 -20.417)" fill="#f1f2f2"/><path d="M6317.108,4723.345l.212.789-.64-.113Z" transform="translate(-205.426 111.544)" fill="#f1f2f2"/><path d="M6325.254,4800.44l.735.711c-.237.244-.48.684-.711.677s-.454-.46-.679-.718Z" transform="translate(-207.315 131.377)" fill="#f1f2f2"/><path d="M6328.333,4897.548l-.275-.862.716.088Z" transform="translate(-208.112 155.893)" fill="#f1f2f2"/><path d="M5573.9,5125.848c.23-.212.472-.6.687-.588s.408.44.61.684c-.23.212-.472.6-.689.588S5574.1,5126.093,5573.9,5125.848Z" transform="translate(-26.496 214.488)" fill="#f1f2f2"/><path d="M6340.4,4751.687l-.82.772c-.227-.307-.65-.633-.627-.916s.492-.522.766-.779Z" transform="translate(-210.704 118.715)" fill="#f1f2f2"/><path d="M5743.316,4881.241l.685-.839c.233.274.652.554.645.821s-.439.521-.686.779Z" transform="translate(-70.129 151.893)" fill="#f1f2f2"/><path d="M5780.435,5139.193l-.263-.813.677.08Z" transform="translate(-78.82 217.698)" fill="#f1f2f2"/><path d="M6352.9,4872.2l.756-.682c.2.282.577.585.551.84s-.454.461-.705.689Z" transform="translate(-213.992 149.602)" fill="#f1f2f2"/><path d="M5779.389,5498.682l1.484,1.119-1.02.452-.111-1.947Z" transform="translate(-78.643 310.272)" fill="#f1f2f2"/><path d="M5568.77,5245.894l.7.419-.763,1.121-.688-.8Z" transform="translate(-25.276 245.459)" fill="#f1f2f2"/><path d="M5563.379,5047.533c.224.3.643.619.618.892s-.49.5-.762.746c-.225-.3-.642-.62-.618-.892S5563.107,5047.78,5563.379,5047.533Z" transform="translate(-24.155 194.7)" fill="#f1f2f2"/><path d="M6361.8,4795.146c.007-.254.007-.507.007-.762l1.38.408c-.235.25-.437.59-.719.712C6362.312,4795.573,6362.022,4795.278,6361.8,4795.146Z" transform="translate(-222.459 129.778)" fill="#f1f2f2"/><path d="M5559.458,4804.048l.835-.8c.238.312.677.64.656.929s-.5.541-.778.809Z" transform="translate(-23.5 132.163)" fill="#f1f2f2"/><path d="M5554.552,5317.99l.667-.216-.094.647Z" transform="translate(-22.482 263.515)" fill="#f1f2f2"/><path d="M5748.576,5042.256c.25-.214.519-.617.746-.59s.414.48.617.748c-.25.214-.519.614-.747.589S5748.78,5042.521,5748.576,5042.256Z" transform="translate(-71.371 193.112)" fill="#f1f2f2"/><path d="M5774.9,5049.141l-.175-.637.525.094Z" transform="translate(-77.532 194.66)" fill="#f1f2f2"/><path d="M6373.863,4918.18l.2.688-.606-.114Z" transform="translate(-224.878 161.349)" fill="#f1f2f2"/><path d="M6381.995,4908.358c.216.284.614.583.6.847s-.453.5-.7.741c-.215-.284-.614-.583-.6-.847S6381.743,4908.6,6381.995,4908.358Z" transform="translate(-226.503 159.049)" fill="#f1f2f2"/><path d="M5540.718,5193.142c.2.273.577.565.557.818s-.438.466-.682.7c-.2-.274-.578-.565-.557-.818S5540.474,5193.372,5540.718,5193.142Z" transform="translate(-19.471 231.943)" fill="#f1f2f2"/><path d="M5748.5,4831.97c.248-.191.521-.561.737-.524s.375.479.559.743c-.248.191-.521.56-.738.524S5748.682,4832.235,5748.5,4831.97Z" transform="translate(-71.352 139.29)" fill="#f1f2f2"/><path d="M5768.439,5542.144l.343-.567-.547.772Z" transform="translate(-76.002 455.443)" fill="#f1f2f2"/><path d="M5768.053,5542.5l-.7-.1.9-.1Z" transform="translate(-75.798 455.294)" fill="#f1f2f2"/><path d="M5473.57,5175.554l-.713.284.065-.715Z" transform="translate(-5.537 227.062)" fill="#f1f2f2"/><path d="M5473.637,5432.608l-.732.279.075-.729Z" transform="translate(-5.547 292.798)" fill="#f1f2f2"/><path d="M5470.71,5246.359l-.444.9-1.131-.863c.263-.268.524-.745.789-.747S5470.46,5246.114,5470.71,5246.359Z" transform="translate(-4.765 245.421)" fill="#f1f2f2"/><path d="M5755.821,5523.149l.168,1.815-1.205-.3,1.34-1.236Z" transform="translate(-72.835 316.576)" fill="#f1f2f2"/></g></svg>