<svg xmlns="http://www.w3.org/2000/svg" width="28.183" height="28.181" viewBox="0 0 28.183 28.181"><defs><style>.a{fill:#fff;}</style></defs><path class="a" d="M34.685-2.483H19.154a6.325,6.325,0,0,0-6.326,6.325V19.373A6.325,6.325,0,0,0,19.154,25.7H34.685a6.325,6.325,0,0,0,6.326-6.325V3.842A6.325,6.325,0,0,0,34.685-2.483ZM31.454,13.4c-1.562,1.952-4.09,2.06-5.262.879a1.389,1.389,0,0,0-.234-.342v.117a12.846,12.846,0,0,1-1.2,3.7,11.468,11.468,0,0,1-.927,1.386.131.131,0,0,1-.156.1c-.078-.02-.088-.1-.1-.166a11.8,11.8,0,0,1-.156-2.03c0-.879.137-1.181,1.269-5.935a.333.333,0,0,0,0-.2A3.341,3.341,0,0,1,24.542,8.7c.508-1.62,2.353-1.747,2.675-.41.2.83-.322,1.952-.732,3.514-.3,1.328,1.259,2.3,2.587,1.328s1.7-3.026,1.611-4.529C30.507,5.59,27.2,4.945,25.109,5.912c-2.4,1.113-2.929,4.09-1.865,5.447.137.176.244.283.2.459s-.127.547-.205.82a.294.294,0,0,1-.348.226.309.309,0,0,1-.082-.031,2.456,2.456,0,0,1-.976-.752,4.754,4.754,0,0,1,0-5.31,6.373,6.373,0,0,1,6.15-2.714,5.212,5.212,0,0,1,4.793,4.3A7.166,7.166,0,0,1,31.454,13.4Z" transform="translate(-12.828 2.483)"/></svg>