<svg xmlns="http://www.w3.org/2000/svg" width="28.183" height="28.181" viewBox="0 0 28.183 28.181"><defs><style>.a{fill:#fff;}</style></defs><path class="a" d="M21.857,0H6.326A6.325,6.325,0,0,0,0,6.325V21.856a6.325,6.325,0,0,0,6.326,6.325H21.857a6.325,6.325,0,0,0,6.326-6.325V6.325A6.325,6.325,0,0,0,21.857,0ZM18.069,9.068H16.459c-.644.02-1.123.264-1.171,1.074v1.952H18l-.361,2.763H15.307v6.911h-2.86v-6.9H10.1V12.124h2.353V10.259a7.325,7.325,0,0,1,.088-1.054,3.075,3.075,0,0,1,1.24-2.05,3.569,3.569,0,0,1,2.05-.634h1.455c.264.02.527.078.781.078Z"/></svg>