<svg xmlns="http://www.w3.org/2000/svg" width="28.183" height="28.182" viewBox="0 0 28.183 28.182"><defs><style>.a{fill:#fff;}</style></defs><path class="a" d="M14.466,11.44a2.977,2.977,0,1,0,2.929,3.025q0-.048,0-.1A2.928,2.928,0,0,0,14.466,11.44Z" transform="translate(-0.272 -0.273)"/><path class="a" d="M21.857,0H6.326A6.325,6.325,0,0,0,0,6.325V21.856a6.325,6.325,0,0,0,6.326,6.325H21.857a6.325,6.325,0,0,0,6.326-6.325V6.325A6.325,6.325,0,0,0,21.857,0Zm1.376,18.352a6.779,6.779,0,0,1-1.171,3.026,5.38,5.38,0,0,1-4.393,1.855H10.348a5.362,5.362,0,0,1-3.612-1.171,5.379,5.379,0,0,1-1.855-4.354V10.874a7.354,7.354,0,0,1,.1-1.464,4.783,4.783,0,0,1,3.71-4.2l1.074-.332h8.786c.2.1.488.1.683.2A4.666,4.666,0,0,1,22.941,8.3a7.8,7.8,0,0,1,.293,1.464Z"/><path class="a" d="M18.487,6.9a3.185,3.185,0,0,0-.361,0q-3.807-.146-7.614,0A3.338,3.338,0,0,0,6.9,9.939a3.281,3.281,0,0,0,0,.571v7.614a3.338,3.338,0,0,0,3.041,3.612,3.281,3.281,0,0,0,.571,0q3.807.146,7.614,0c2.245,0,3.514-1.367,3.612-3.612q.146-3.807,0-7.614A3.436,3.436,0,0,0,18.487,6.9ZM14.358,19.139a4.88,4.88,0,0,1-4.783-4.783,4.794,4.794,0,0,1,4.783-4.783,4.88,4.88,0,0,1,4.783,4.783A4.792,4.792,0,0,1,14.358,19.139Zm4.88-8.591a1.171,1.171,0,0,1-1.17-1.17A1.132,1.132,0,0,1,19.16,8.206h.079A1.26,1.26,0,0,1,20.41,9.378,1.17,1.17,0,0,1,19.238,10.548Z" transform="translate(-0.164 -0.163)"/></svg>