<svg xmlns="http://www.w3.org/2000/svg" width="450" height="164" viewBox="0 0 450 164"><defs><style>.a{fill:#fff;}</style></defs><g transform="translate(-1605.638 -6581.519)"><g transform="translate(2021.389 6582.352)"><path class="a" d="M1839.1,6599.112a17.124,17.124,0,1,1,17.124,17.125A17.176,17.176,0,0,1,1839.1,6599.112Zm30.956,0a13.831,13.831,0,1,0-13.832,13.961A13.943,13.943,0,0,0,1870.058,6599.112Zm-19.716-8.519h7.421c3.469,0,5.444,1.933,5.444,4.566a4.11,4.11,0,0,1-3.511,4.171c2.2,0,3.293.614,3.293,2.546v5.226H1859.7v-4.215c0-1.316-.659-1.933-2.151-1.933h-3.909v6.147h-3.293Zm6.367,7.509c1.977,0,3.205-.746,3.205-2.37,0-1.538-1.054-2.064-3.248-2.064h-3.031v4.435Z" transform="translate(-1839.102 -6581.987)"/></g><path class="a" d="M1674.026,6722.817c0-5.118.588-9.268,5.706-9.268h14.548q7.715,0,10.421-4.469a10.241,10.241,0,0,0,1.389-5.435,20.251,20.251,0,0,0-1.216-6.4l-1.562-4.821-30.3-89.093a.52.52,0,0,1,.087-.525,1.093,1.093,0,0,1,.434-.265,1.731,1.731,0,0,1,.522-.087h16.18c.463,0,.782.31.956.925l23.5,72.159a.931.931,0,0,0,1.752,0l23.762-72.207c.176-.585.466-.877.876-.877h16.309a1.106,1.106,0,0,1,.746.264.582.582,0,0,1,.219.613l-30.776,89.96L1722.4,6708.9a49.126,49.126,0,0,1-5.651,11.75,18.255,18.255,0,0,1-7.536,6.181,29.266,29.266,0,0,1-11.866,2.06h-21.84a1.483,1.483,0,0,1-1.483-1.483Z" transform="translate(52.579 16.627)"/><path class="a" d="M1725.99,6708.028V6583.347a.775.775,0,0,1,.876-.876h15.256a.776.776,0,0,1,.878.876v42.786a.826.826,0,0,0,.613.836q.614.218,1.227-.483,2.543-2.893,9.953-6.576a34.7,34.7,0,0,1,15.65-3.682q19.465,0,31.125,13.065t11.663,34.193q0,21.129-11.618,34.151t-31.17,13.02a37.191,37.191,0,0,1-14.117-3.2q-7.715-3.2-11.487-6.969a1.062,1.062,0,0,0-.963-.4,1,1,0,0,0-.876.746l-1.754,7.191c-.177.585-.5.876-.965.876h-13.415A.774.774,0,0,1,1725.99,6708.028Zm23.849-67.689q-6.838,8.855-6.838,23.147t6.838,23.1q6.839,8.81,18.85,8.813,12.712,0,20.079-8.813t7.366-23.1q0-14.292-7.366-23.147t-20.079-8.855Q1756.676,6631.483,1749.839,6640.339Z" transform="translate(93.969 0.744)"/><path class="a" d="M1800.062,6648.685q0-21.48,11.748-34.372t32.616-12.887q16.922,0,27.97,8.329t14.731,23.322a.711.711,0,0,1,.087.264q0,.612-.965.612h-15.956a1.051,1.051,0,0,1-1.052-.876,24.315,24.315,0,0,0-9.339-12.188q-6.357-4.21-15.475-4.207-12.624,0-19.947,8.855t-7.321,23.147q0,14.288,7.321,23.1t19.947,8.813q9.12,0,15.475-4.167a24.064,24.064,0,0,0,9.339-12.142,1.051,1.051,0,0,1,1.052-.879h15.956c.643,0,.965.207.965.613a.369.369,0,0,1-.087.266q-3.772,15.082-14.774,23.32t-27.927,8.243q-20.868,0-32.616-12.891T1800.062,6648.685Z" transform="translate(151.803 15.686)"/><path class="a" d="M1712.572,6739.433c0-5.126-.588-9.283-5.706-9.283h-14.549q-7.715,0-10.418-4.476c-.684-1.122-3.305-9.347-4.639-13.6a1.828,1.828,0,0,1,1.325-2.314,49.566,49.566,0,0,0,15.084-6.47,50.073,50.073,0,0,0,19.069-22.878q6.182-14.493,6.181-33.813t-6.181-33.814a50.07,50.07,0,0,0-19.069-22.877q-12.889-8.388-31.3-8.389t-31.346,8.389a50.241,50.241,0,0,0-19.156,22.877q-6.227,14.493-6.226,33.814t6.226,33.813a50.243,50.243,0,0,0,19.156,22.878q11.489,7.451,27.323,8.253a1.823,1.823,0,0,1,1.644,1.239l4.207,12.712a49.364,49.364,0,0,0,5.652,11.77,18.284,18.284,0,0,0,7.535,6.191,29.239,29.239,0,0,0,11.869,2.063h21.839a1.485,1.485,0,0,0,1.483-1.486Zm-78.964-56.167q-10.084-13.131-10.083-36.667t10.083-36.669q10.081-13.129,28.759-13.13t28.714,13.13q10.039,13.135,10.041,36.669t-10.041,36.667q-10.038,13.129-28.714,13.13T1633.608,6683.267Z" transform="translate(0)"/><g transform="translate(1921.027 6583.214)"><path class="a" d="M1782.744,6692.42v-89.084a.775.775,0,0,1,.876-.877h15.257a.776.776,0,0,1,.878.877v89.084a.775.775,0,0,1-.878.876H1783.62A.774.774,0,0,1,1782.744,6692.42Z" transform="translate(-1782.744 -6566.862)"/><rect class="a" width="17.01" height="21.384" rx="0.492" transform="translate(0)"/></g></g></svg>